<?xml version="1.0" encoding="utf-8"?>
<!-- Generator: Adobe Illustrator 23.0.4, SVG Export Plug-In . SVG Version: 6.00 Build 0)  -->
<svg version="1.1" id="レイヤー_1" xmlns="http://www.w3.org/2000/svg" xmlns:xlink="http://www.w3.org/1999/xlink" x="0px"
	 y="0px" viewBox="0 0 595.3 841.9" style="enable-background:new 0 0 595.3 841.9;" xml:space="preserve">
<g id="_x35_i2eOk.tif">
	<g>
		<path d="M169.4,355.2c-1.4,0.7-1.7,2-1.4,3.4c0.4,2.1,0,2.6-2.1,2c-2.8-0.8-4.5-3.4-4.7-6.3c-0.1-1.8-0.9-3.5-1.2-5.3
			c-0.1-0.9-0.2-1.3,0.8-1.8c1.2-0.7,0.4-1.5-0.5-2c-1.1-0.5-1.3-1.1-0.4-2c0.5-0.5,0.8-1,0.1-1.5c-0.7-0.6-0.6-0.9,0.2-1.2
			c1.2-0.6-0.6-1.7,0.3-2.5c2.2-1.8,1.5-4.6,2.1-7c0.5-1.8,2.8-1.7,2.6-3.6c0-0.2,0.2-0.3-0.1-0.5c-0.2-0.1-0.6-0.1-0.4-0.3
			c0.8-1.5,0.4-3.5,2-4.7c0.3-0.2,0.8-0.4,0.7-0.7c-0.6-2.7,2-3.5,3.2-5c0.4-0.6,1-0.4,1.6-0.4c0.7,0,1.7-0.5,0.7-1.4
			c-1.8-1.7-0.4-3,0.7-3.7c2.2-1.6,4.5-3.5,5.6-5.7c1-2.1,2.8-3.3,3.8-5.2c0.7-1.2,1.2-2.6,1.8-3.7c1-1.7,3-2.9,4.7-4.2
			c0.6-0.5,1-0.8,0.9-1.8c-0.2-1.6,1.6-2.1,2.5-2.8c2.2-1.7,4.4-3.7,7.5-3.9c0.2,0,0.5-0.4,0.5-0.6c0.2-2.2,2-2.5,3.6-3.3
			c-1-0.6-1.6-1.5,0-1.7c1.4-0.2,1.5-1.3,2.3-1.9c1.5-1.2,3.4-0.9,5.1-1.6c0.8-0.4,1.8-0.4,2.2-1.5c0.2-0.4,1-1.6,1.9-0.4
			c0.4,0.5,0.8,0.3,1.1-0.1c1.3-2.4,3.3-2.9,5.8-2c0.7,0.2,1.5,0.8,1.6-0.6c0-0.2,0.3-0.5,0.3-0.5c1.8,1,3.1-1.5,4.9-0.7
			c0.4,0.2,0.7-0.1,1.1-0.1c1.1,0.1,2.6-2,3.2,0.6c0.8-0.4,1.7,0.7,2.5-0.2c0.9-1.1,2.1-1.3,3.5-1c0.7,0.2,1.5,0.2,2.1-0.2
			c1.8-1.1,3.8-0.2,5.8-0.5c1.2-0.2,3.3-1.6,4.3,0.8c0,0.1,0.3,0.1,0.4,0c2.9-1.7,5.9-0.3,8.8-0.1c0.4,0,1,0.1,1.1-0.1
			c1.1-1.8,2.7-0.1,4-0.7c2.2-1,4.6,0.8,6.9-0.3c0.3-0.1,0.9,0.1,1.3,0.3c1.6,0.8,3.1,1.7,4.4-0.8c0.6,2.9,2.4,2.4,3.9,2.1
			c1.1-0.2,1.7-0.1,2.7,0.6c1.6,1.2,3.5,2.2,5.5,3c1.2,0.5,3.7,0.1,3.8,2.6c0,0.5,0.5,0.7,1,0.4c1.6-0.8,2.5,0,3.4,1.4
			c0.6,1,1.5,1.9,2.7,2.4c0.7,0.3,1.1,0.8,1,1.6c-0.1,1,0.2,1.7,1.1,2c0.9,0.2,1.2,0.8,1.3,1.6c0,0.5,0,1.2,0.8,1
			c0.6-0.1,0.4-0.7,0.4-1.1c0-0.6-0.5-1.3,0.1-1.7c0.8-0.4,1,0.7,1.5,1c1.4,0.7,1.7,2.3,3.3,3c1.5,0.6,1.9,2.7,3.4,3.7
			c0.8,0.5,1.1,1.6,2.3,1.6c0.3,0,0.8,0.5,0.7,0.7c-0.7,2.9,3.9,3.3,3.1,6.5c-0.3,1.1,1.3-0.4,2,0.2c-0.2,0.9-1.1,1.6-0.6,2.7
			c0.3,0.6,0.4,2,1.6,0.6c0.4-0.5,3.2,0.7,3.2,1.4c-0.2,1.7,1.2,2.5,2,3.7c0.7,1,1.7,1.8,1.6,3.3c-0.1,0.9,0.6,1.1,1.5,1.3
			c1,0.2,1.6,0.8,1.3,2.2c-0.3,1.4,0.3,3,1.8,3.6c1.1,0.4,2,0.8,2.5,2c0.5,1.1,1.4,1.3,1.8-0.1c0.2-0.5,0.3-0.9,0.8-0.7
			c2.3,1.2,4.8,1.2,7.4,1c0.8,0,1.2,0.8,1.7,1.4c1,1.1,2,1.4,3.3,0.3c1-0.9,3.6-0.3,4.2,0.9c0.4,0.8,0.8,0.9,1.4,0.4
			c1.3-1.1,2.7-0.5,3.6,0.3c1.4,1.2,2.8,2.1,4.5,2.6c0.8,0.2,1.4,1.1,2.4,0c0.5-0.6,1.1,0.3,1.4,0.9c0.4,1,0.9,1.8,2.2,1.2
			c0.4-0.2,0.9,0,1,0.3c0.5,1.5,2.1,1.6,3,2.4c1.2,1.1,2.6,1.6,3.9,2.3c0.3,0.1,0.5,0.4,0.6,0.6c1.2,2.9,4,3.7,6.4,5
			c0.4,0.2,1.2,0.4,1.2,1c0,3.2,2.8,3.3,4.7,4.4c0.5,0.3,0.6,0.6,0.9,1.1c0.6,0.9,0.6,2.3,2.4,2.4c1.1,0.1,1.4,1.9,1.7,3.1
			c0.5,1.6,1.3,3.1,2.8,3.9c0.8,0.4,0.5,0.5,0.2,1c-0.3,0.6,0.6,1.1,0.8,1c2.4-1.5,1,0.6,1.3,1.2c0.2,0.6,0,1.3,0.6,1.9
			c1.6,1.6,2.3,3.7,3.4,5.6c0.6,1.1-0.3,1.4-0.7,2.1c0.2,0.6,2.8-0.1,0.8,1.5c2,0.2,3,1.4,3,3.1c0,1.4,0.2,2.5,1.1,3.5
			c0.4,0.4,0.5,1,0.4,1.7c-0.3,2.7,0.2,5.2,1.1,7.8c0.4,1,0.3,2.2,0.2,3.3c-0.4,3-0.2,6,0.1,8.9c0.3,2.6-1.3,4.8-1.1,7.4
			c0.1,2,1.1,4.4-0.5,6.3c0,0,0.1,0.3,0.2,0.4c0.9,1,2,1.6,0.6,3.3c-0.6,0.8-0.4,2.4-1.8,3.2c-0.3,0.2-1.5,1,0.2,1
			c0,0,0.1,0.5,0,0.6c-1.9,1.8-0.7,5.2-3.4,6.5c-0.2,0.1-0.4,0.8-0.3,1c0.6,1.5-0.2,2.4-1.3,3.1c-0.6,0.4-1.3,0.7-0.4,1.7
			c0.7,0.7,0.3,1.6-0.6,2.2c-1.4,0.9-2.5,1.9-1.9,3.9c0.2,0.8,0.8,2.3-1.1,2.1c-0.1,0-0.3,0.5-0.4,0.7c-2.2,3.3-2.9,7.5-6.7,9.9
			c-0.7,0.4-0.9,1.9-1.8,2.8c-0.5,0.4-0.2,2.1,0.6,2.4c2.5,0.9,0.6,3.5,2.1,4.6c-1.8,1.7,0.3,3.1,0.6,4.4c0.6,2.3,1.4,4.6,1.7,7
			c0.2,1.6,0.1,2.8,1.8,3.4c0.2,0.1,0.6,0.4,0.6,0.6c0,3.3,3.2,5.3,3.3,8.5c0,0.4,0.4,0.7,0.8,0.7c1.2,0.2,1.1,0.9,0.9,1.8
			c-0.2,0.8-0.4,1.9,0.5,2.2c2.4,1,1.6,2.6,1,4.2c-0.1,0.3-0.3,0.7-0.4,1c0.7,0.8,1.5-1.1,1.8,0c0.3,1.3,1.9,2.7-0.3,4.2
			c1.4,0.4,2.5-0.1,3.6,0.6c0.7,0.5,1.2-0.6,1.6-1.4c1.3-2.3,2.1-4.9,4.6-6.3c1.1-0.6,1-2.1,1.7-3.1c1-1.5,1.5-3.7,2.8-5.2
			c1.4-1.6,2.2-3.6,3.9-5.1c1.5-1.4,2.5-3.6,4.4-4.8c1.7-1.1,3-3.2,5.5-2c1.9,1,3.2,2.9,5.4,3.6c0.5,0.1,0,0.8-0.3,1.1
			c-0.8,1.2-1.8,2.2-3.1,2.9c-1,0.5-2.4,0.5-2.6,2c0,0-0.7,0.8-1.3,0.5c-2-1.2-2,1.2-2.1,1.7c-0.5,2.6-1.7,4.4-4.2,5.4
			c-0.6,0.3-0.4,0.9-0.2,1.1c1.1,1.4,0.3,2.4-0.6,3.2c-1.3,1.1-2.2,2.3-2.7,4c-0.5,1.5-1.7,2.5-2.5,3.8c-0.7,1.2-0.1-1.4-1.4-0.8
			c-0.4,0.9,0.5,2.3-0.5,3.3c-0.4,0.4-0.7-0.4-1.3-0.5c0.8,2.5-0.9,3.8-2.3,5.3c-0.4,0.4-0.9,0.5-1.5,0.3c-1.1-0.4-2-0.5-2.2,1.1
			c-0.1,0.7-0.8,1-1.5,0.2c-0.8-1-1.7-2-3.1-0.5c-0.2,0.2-1.4-0.2-1.7-0.6c-0.5-0.8-1.5-1.3-1.7-1.8c-1-3.3-4.7-5.1-4.6-8.9
			c0-0.8-0.7-1.3-0.9-1.9c-0.2-0.7-2.8-0.9-0.7-2.3c-1-0.5-1.1-1.6-1.6-2.4c-1-2-1.2-4.1-1.6-6.1c-0.2-1-0.4-2-1.4-2.6
			c-0.2-0.1-0.5-0.4-0.5-0.4c1.2-2.3-0.7-4.3-1.7-5.4c-1.8-2.1-0.7-5.3-3.2-6.8c0.6-1.7-1.7-2.5-1.2-4.3c0.3-1-0.8-1.3-1.6-1
			c-0.7,0.3-1.3,0.7-1.5,1.6c-0.6,1.9-2.2,3-3.3,4.4c-0.2,0.3-0.6,0.6-0.9,0.6c-2.1,0-2,1.9-2.7,3.2c-0.1,0.2,0,0.8-0.1,0.8
			c-3.2,1.4-3.8,5.4-7.2,6.7c-1.6,0.6-2.8,2.1-4,3.3c-1.6,1.4-4.1,0.4-5.2,2.6c-0.1,0.2-0.4-1-1-1.4c-1.8,1.8-3.4,4.2-6.1,4.6
			c-3.2,0.4-5.2,2.9-8.2,3.7c-1,0.3-1.9,1.1-3.1,0.4c-0.1-0.1-0.4-0.1-0.4-0.1c-1.5,1.8-4.3,0.7-5.9,2.5c-1,1.1-2.3,2-4,1.1
			c-0.2-0.1-0.5-0.1-0.6,0c-1.8,2.2-4.6,2-6.9,2.9c-2.1,0.7-4.5,0.5-6.7,0.7c-0.2,0-0.4-0.1-0.7-0.1c-0.6,3.7-4.9,0.6-6.2,3.4
			c-0.3,0.6-1.7-0.2-2.7,0.1c-1.6,0.5-2,1.7-1.2,2.7c1.3,1.7,1.4,3.8,2.3,5.5c0.5,0.9,1,1.8,1.7,2.6c0.4,0.5,1.7,0.6,0.7,1.7
			c2.2,0.8,1.5,3.6,2.3,4.2c2.1,1.5,3.3,3.4,4.5,5.5c0.7,1,1.8,2,2.6,2.6c1.6,1.3,1.6,3.5,3.5,4.5c0.9,0.5,0.5,2.3,1.9,2.8
			c2.6,0.9,3.1,3.6,4.4,5.5c1.5,2.1,4.6,2.5,5.9,5.2c1,2.2,3.8,3.2,4.4,5.9c0.1,0.4,0.4,1.2,0.8,0.9c3-1.6,4.5,1.4,6.8,2.1
			c0.9,0.3,1.3,0.4,2.1-0.1c2.3-1.4,3.4-3.7,5.1-5.6c1.1-1.2,1.6-2.9,3.2-3.9c1.9-1.2,2.8-3.5,3.6-5.6c0.2-0.6,0.3-1.3,1.1-1.2
			c1.2,0.2,1.4-0.5,1.9-1.3c0.4-0.6,1.7-2.1,2.2,0.3c0.2,1,0.7,1.4,1.8,0.9c0.8-0.3,1.6-0.5,1-1.7c-0.2-0.4-0.5-1.2,0.2-1.3
			c0.8-0.1,1.7-0.1,2.2,0.7c1,1.5,0.8,3.3,1.5,5c0.3,0.8-1.3,1.5-2.2,1.8c-2,0.5-3.1,1.4-3.1,3.6c0,1.3-1.5,1.2-2,2.2
			c-1.9,3.7-4.6,6.7-7.6,9.4c-0.8,0.7-1.7,2-1.9,2.8c-0.7,2.9-3.2,2.3-4.9,2.7c-3.7,1.1-7.2-0.5-10.5-1.9c-2.1-0.8-3.6-2.9-5.4-4.5
			c-0.4-0.4-1-1-1.4-1c-1.6,0.3-2.4,0.1-2.4-1.8c0-1-1.1-0.2-1.8-0.7c-1.8-1.4-2.3-3.7-4.1-5c-2.3-1.7-3.9-3.8-4.6-6.6
			c-0.1-0.5-1-0.5-1.5-0.7c-2-0.8-1.9-3.1-3.4-4.2c-1.6-1.3-3.2-2.5-3.5-4.8c0-0.2-0.2-0.4-0.4-0.5c-3.4-2.3-5-6.1-7.4-9.2
			c-0.6-0.8-0.3-2.1-2.1-1.3c-0.7,0.3-0.9-1-0.8-1.8c0.2-1.4-0.1-2.4-1.5-3.4c-2.3-1.6-2.5-4.4-2.9-6.9c-0.2-1-0.6-2-1.1-2.9
			c-0.8-1.3-1.9,0.1-2.6,0c-3.3-0.7-6.5,1.4-9.8,0.2c-0.2-0.1-0.7,0-0.8,0.1c-1.3,2.5-3.4,1.3-5.3,1.4c-1.1,0.1-2.6-0.5-3.6,0.8
			c-0.1,0.2-0.6,0.2-0.8,0.2c-3.4-1.2-7.1,0.9-10.3-0.3c-2.4-0.9-4.9,1-7-1c-0.4-0.4-1,0.2-1.4,0.8c-0.6,0.8-1.4,1.3-2.4,0.5
			c-0.2-0.1-0.5-0.3-0.6-0.2c-2.3,1.7-4.5,0.2-6.7-0.1c-0.5-0.1-1.1-0.1-1.4,0.5c-0.2,0.4-0.5,0.6-0.9,0.4c-3.1-1.5-6.5,0.5-9.6-0.9
			c-0.5-0.3-1.3-0.2-1.7-0.6c-1.1-1-2.1-1.8-3.6-0.7c-0.3,0.2-0.8,0.1-1-0.3c-0.8-1.3-1.6-1.3-2.7-0.3c-0.2,0.2-0.9,0.6-1.2,0.2
			c-0.8-1.2-2.1-0.8-3.1-1.2c-1.1-0.4-2.1-1-3.4-0.6c-0.5,0.2-1-0.2-1.3-0.9c-0.4-0.7-1-1.7-2.3-0.8c-0.5,0.4-1.4,0-1.9-0.5
			c-2-2-4.5-2.4-7.1-3.3c-1-0.3-3.4-0.8-3.5-3c-2.4,0-3.2-2.6-5.1-3.4c-2-0.8-2.7-3.4-5.1-3.7c-0.7-0.1,0.2-0.6,0.2-1
			c0.1-0.7,0.2-1.4-0.8-1c-2,0.7-1.8-0.8-1.5-1.7c0.4-1-0.1-1.3-0.7-1.5c-3.1-1-5.3-3-5.8-6.4c-0.1-0.7-0.9-0.8-1.2-1.2
			c-0.3-0.4-1.5-0.4-0.5-1.4c0.5-0.5,0.1-0.8-0.4-0.9c-1.3-0.4-1.7-1.1-0.6-2.2c-3-0.6-4.7-2.7-4.5-5.8c0-1-0.1-1.9-0.7-2.8
			c-0.6-0.8-3.1-1.4-0.3-2.8c0.5-0.2,0-1.1-0.2-1.7c-0.2-0.7-0.9-0.4-1.4-0.5c-0.5,0-1.1,0.9-1.5-0.3c-0.4-1,0.3-1.3,0.8-1.6
			c0-0.8-2.2,0.4-1-1.6c0.7-1.2-0.8-2.1-2.5-1.9c0.7-0.6,1.3-1,1.7-1.5c0.4-0.5,0-1.6-0.5-1.2c-1.7,1.2-1.8-0.6-2-1.1
			c-0.3-0.6-1.5-1.7,0.3-2.3c0.7-0.2,0.2-0.5-0.1-0.9c-1-1.4-1.9-2.9-1-4.7c0.3-0.6,0.4-1.2,0.1-1.8c-1.5-3.7-0.4-7.2,0.4-10.7
			c0.1-0.6-0.2-1-0.3-1.5c-0.3-1.4-0.9-2.9-0.2-4.4c0.4-0.8,0.3-1.4-0.4-2c-0.2-0.1-0.3-0.3-0.4-0.5c2.6-0.8-1-3.3,1.2-4.2
			c-1.4-1.6,1.7-3.6-0.5-5.3c-0.7-0.5,0.6-1.3,0.4-2c-0.3-1.4,0.5-0.9,1.2-0.8c0.8,0.1,1.1-0.3,1-1.1c-0.5-4.7,1.1-8.9,4.6-12
			c0.2-0.2,0.7-0.4,0.7-0.5c-0.5-1.7,0.8-3.2,0.6-4.9c-0.1-1.3,1.1-2.2,1.7-3.1c0.5-0.7,1.2-1.3,1.9-1.9c0.7-0.7,2.1-1.1-0.1-1.7
			c-0.6-0.2,0-0.9,0.1-1.4c0.4-1.2,1.2-2.7-1.3-2.7c-1.4,0-2.2-1.4-2.9-2.3c-1.8-2.3-4.2-4.6-2.4-8c0.5-0.9-0.7-1.2-1.2-1.3
			c-1.3-0.3-1.1-1.3-0.7-1.9c0.7-0.9,0.6-1.4,0.2-2.5c-0.4-1.1-1.3-2.4-0.5-3.9c0.9-1.8-1.2-3.4-0.7-5.4
			C170.8,355,169.8,355.1,169.4,355.2c0.4-0.7,0.9-1.5,1.4-2.2c0.3-0.4,0.7-0.7,0.2-1.1c-0.4-0.3-0.9-0.1-1.2,0.1
			C168.2,352.9,169.4,354.1,169.4,355.2z M253.3,503.3c0.8-0.4-1.2-0.9,0.6-1.5c1.9-0.7,3.3-0.3,4.9,0.2c1.5,0.4,2.9,1,4.4,0
			c0.5-0.3,1.1-1.1,1.8-0.6c1.5,1.1,3,0.3,4.5,0.4c3.4,0.2,6.8,0.3,10.1-0.3c3.8-0.7,7.6-0.2,11.3-1.4c0.9-0.3,1.8-1.7,2.7-1
			c2.2,1.7,2.9-1.2,4.6-1.3c0.7-0.1-0.1-1.8-0.4-3.1c1.8,0.8,1.9-0.5,2.2-1.6c0.6-2.2,3,1,3.6-1.2c0.3,0.1,0.7-0.3,1,0.2
			c0,0.1,0,0.2,0,0.2c0.3,0.9-0.4,2.7,1.8,2.3c0.4-0.1,2.1,0.7,2.7,0.3c0.4-0.3,0.9-0.6,1.4-0.6c1.6,0.1,3.1-0.7,4.7-0.2
			c0.6,0.2,1.5,0.5,2.1-0.2c1.4-1.8,3.2-2.6,5.5-2.3c0.4,0,0.9-0.2,1.2-0.5c2.6-1.6,5.3-3,8.5-2.7c2.1,0.2,3.9-2.7,6.3-1
			c0.1,0.1,0.7-0.3,0.7-0.5c0.1-1.4,1.6-1,1.9-1.5c0.8-1,1.6,0.7,2.2-0.5c0.5-1,1.5-0.9,2.5-1c1.1-0.1,2.6,0,3-1.5
			c0.4-2,1.7-2.2,3.2-1.7c1.6,0.5,2.5-0.4,3.2-1.4c1.2-1.9,2.7-3,4.8-3.4c1.1-0.2,2-0.6,2.8-1.8c0.8-1.3,1.9-3.4,4.4-2
			c0.6,0.3,1.2-0.7,1.1-1.1c-0.4-2.2,1.1-2.4,2.6-2.7c0.5-0.1,0.6-0.3,0.7-0.7c0.1-1.2,0.4-1.9,1.5-2.9c1.5-1.4,2.2-3.6,4.7-3.8
			c0.5,0,0.4-0.7,0.3-1.1c-0.1-0.3-0.8-0.4-0.2-1c1.5-1.4,2.6-3.1,3.8-4.7c0.9-1.2,1.8-2.5,2.3-3.6c1-2.1,3.7-3.1,3.6-5.8
			c0-0.1,0.2-0.3,0.3-0.3c1.7,0.1,1.3-1.5,1.8-2.3c1.9-3.1,2.9-6.8,5.9-9.3c0.3-0.3,1.1-1.1,0.9-1.4c-0.8-2,1.5-3.3,0.7-5.2
			c0.8-0.1,1.1,1,1.8,0.3c-0.4-1-2.1-2,0.1-2.9c-0.7-2.1,2.7-3,1.6-5.2c0-0.1,0.4-0.4,0.6-0.6c1.1-1.2,2.2-2.5,2.2-4.2
			c0.1-2.1-0.3-4.3,0.8-6.3c0.1-0.3,0.5-0.9,0.1-1c-2-0.7-0.7-1.5-0.1-2.2c0.6-0.6,0.8-1.5,0.1-1.6c-1.4-0.2-0.9-1-0.6-1.6
			c1.1-2.4-1.1-5.1,0.5-7.4c0,0,0-0.1-0.1-0.2c-0.7-1.9-1.5-3.9,0.4-5.6c0.4-0.4,0-0.7-0.4-0.8c-0.8-0.3-0.5-0.9-0.4-1.3
			c0.5-3.5,0.1-3.5-0.4-6.9c-0.6-3.6-3.8-6.2-3.5-10c0-0.1-0.4-0.4-0.7-0.5c-2.2-0.7-2.6-2.4-2.3-4.5c0.1-0.4,0.8-0.9,0-1.3
			c-2.1-1.3-2.9-3.7-4.4-5.4c-1.6-1.8-3-4.1-4.3-6.3c-0.5-0.9-1.1-1.8-2.4-1.8c-0.4,0-0.9-0.2-0.9-0.5c-0.5-2.9-2.8-2.9-4.9-3.2
			c-0.3,0-0.6,0-0.7-0.4c-0.6-2.5-2.2-3.6-4.7-4.3c-1.5-0.4-3-1.6-4.2-2.7c-1.1-1-1.6-2.7-3.6-2.6c-0.1,0-0.3-0.2-0.3-0.3
			c0.3-1.5-0.8-0.8-1.4-0.9c-0.6,0-1.2,0.2-2,0.3c0.3-0.7,0.6-1.1,0.8-1.7c-0.7-0.2-1.2,0-1.7-0.1c-1.8-0.3-3-1.5-4.5-2.3
			c-2.7-1.3-5.9,0-8.5-1.9c-0.6-0.4-1.2-0.5-2.2-0.2c-0.8,0.3-1.9,1-3.1,0.5c-1.4-0.6-2.9-1.1-4.6-0.7c-0.4,0.1-2.1-0.1-2.4-1.4
			c-0.1-0.4-0.1-0.7-0.7-0.4c-2.2,1.2-2.2,1.1-4,0.4c-2.6-1.1-4.7-3-6-5.3c-1.6-3-2.9-6.2-4.6-9.2c-0.4-0.6,0.2-1.8-0.8-1.8
			c-1.5-0.1-1.4-1.1-1.5-2c0-0.6-0.1-1.5-0.7-1.5c-1.4,0-1.4-1.2-2-2c-0.5-0.6-0.2-1.5-0.7-1.8c-2-1.3-3.2-3.4-5-4.9
			c-1.5-1.4-2.7-3.1-4.4-4.4c-1.2-1-2.7-1.7-3.6-2.6c-1.7-1.7-3.1-3.3-5.5-4.5c-2.4-1.1-3.5-4.6-7-4.4c-0.3,0-0.8-0.5-1-0.9
			c-0.9-2.4-3.7-1.5-5-3.1c-3.1,1.6-5.1-2.5-8.3-1.6c-0.9,0.3-2.3-1.1-3.5-1.5c-1.1-0.4-2.6,1.8-3.5-0.5c0,0-0.3,0-0.4,0
			c-1.7,1.5-3.4,1.5-5.3,0.2c-0.2-0.2-1.8-0.8-2.5,0.2c-1,1.2-2.2,0.9-3.4,0.5c-0.5-0.1-1.2-0.6-1.4-0.2c-1.2,1.8-3.4-2.3-4.3,0.7
			c-0.1,0-0.3-0.1-0.4-0.2c-0.6-0.5-1.3-0.3-1.9-0.1c-1.9,0.7-3.8-0.8-5.9,0.5c-1,0.6-2.6-1.2-4.7-0.6c-2.1,0.6-4.5,0.9-6.6,1.6
			c-0.9,0.3-1.8,0.5-2.5-0.2c-1-1.1-1.6-0.9-2.2,0.3c-0.2,0.3-0.1,0.8-0.7,0.6c-2.7-0.5-4.9,1.3-7.5,1.6c-1.5,0.2-3.6,0.1-4.3,0.8
			c-1.8,1.6-4.4,2.6-5.1,5.3c-0.1,0.3-0.4,0.7-0.5,0.6c-2.7-0.1-4.5,2-6.8,2.8c0.5,1.3-4.2-0.2-1.3,2.4c0,0-0.5,0.7-0.8,1
			c-2.6,2.6-5.6,4.8-7.7,7.8c-0.5,0.8-0.9,1.9-1.8,2.2c-1.8,0.5-2.1,2.6-3.6,3.3c-0.5,0.2-0.6,1-0.4,1.4c0.7,1.1-0.2,1.3-0.8,1.8
			c-1.2,1.1-3.6,1.2-3.1,3.8c0,0.2-0.5,0.5-0.7,0.8c-1.6,2.2-3.3,4.3-5.1,6.3c-1,1.1-1.8,2.4-2.3,4.1c-0.3,1.3-0.6,4.3-3.5,4.1
			c-0.1,0-0.3,0.4-0.3,0.5c1.3,1.9-0.5,3.4-0.9,4.9c-0.3,1.3-0.3,3.5-2.8,3.5c-0.7,0-0.7,1.4-0.5,1.7c1,1.3,0.2,2.4,0.1,3.6
			c-0.1,1-0.3,2,0.8,2.8c0.7,0.5,0.7,1.2,0.3,2.2c-0.4,1-0.7,2.4,0.4,3.3c1.1,1,1.9-0.3,2.8-0.5c0.5-0.1,0.7-0.4,1-0.7
			c0.3-0.4,0.9-0.6,1.3,0c0.5,1,1.4,1.3,2.4,1.4c0.4,0.1,1,0.7,0.8,0.8c-1.5,1,0.1,1.6,0.4,2.1c0.8,1.4,3.1,2.3,1.4,4.5
			c0,0,0.1,0.3,0.2,0.4c3,1,1,3.6,1.1,5.1c0.2,1.9-0.1,4.1,0.1,6.2c0,0.6,0.3,1.4,0.7,1.9c1.9,2.6,5.6,3.7,6.3,7.3
			c0,0.2,0.7,0.2,1,0.3c2.3,1-0.1,3.3,1.3,4.6c0.3,0.3-0.4,0.3-0.6,0.4c-1.1,0.6-1,0.5-0.5,1.7c0.1,0.3,0.7,1.3-0.4,1.6
			c-0.3,0.1-0.8-0.2-0.6,0.7c0.5,1.6-0.7,3-1.4,4.2c-0.7,1.3-2.9,1.7-1.7,3.9c0,0.1-0.5,0.5-0.7,0.7c-0.8,0.6-1.2,1.3-1.6,2.1
			c-0.7,1.3-0.8,3.5-1.4,4c-1.8,1.6-1.9,3.5-2.4,5.5c-0.3,1.3-1.2,2.7-1.5,3.8c-0.6,2.4-0.2,5.1-1.9,7.3c-0.4,0.5-0.1,1.2,0.3,1.7
			c0.2,0.3,0.8,0.3,0.6,0.8c-0.6,2.2-0.8,4.2,0.9,6.3c0.4,0.5,0.4,2.5-0.7,3.2c-0.8,0.6-0.6,0.6-0.3,1.4c0.6,2,1,4,1.2,6.1
			c0.1,1.4-1,2.9-0.3,3.9c1.5,2,0.8,4.4,1.8,6.6c0.8,2,0.6,4.7,1.8,6.8c0.9,1.7,0.4,4.1,2.2,5.5c1.5,1.2,2.9,2.4,2.7,4.6
			c0,0.4,0.3,1.6,1.5,1.7c0.5,0.1,1.3,0.5,1.2,1.1c-0.2,3.4,4.1,5.1,3.3,8.8c-0.1,0.4,0.3,0.5,0.6,0.4c0.9,0,1.2,0.5,1.3,1.2
			c0.1,0.5,0.6,1,0.9,0.7c1.2-1.1,1.3,0.1,1.7,0.6c0.9,1.1,2.2,2.1,2.1,3.8c0,0.5,0.4,1,0.9,0.9c2.2-0.7,2.8,2,4.5,2.3
			c0.4,0.1,0.4,0.4,0.3,0.9c-0.4,1.3,0.8,1.7,1.4,1.3c1.5-1.1,1.9,0,2.2,0.9c0.7,2,1.8,1.9,3.5,1c-0.5,1.9,0.3,2.6,1.8,2.5
			c1,0,1.8,0.2,2.5,0.9c1.4,1.1,2.8,2.1,4.8,2.5c2.7,0.6,5.6,0.6,8,2.1c1.9,1.2,4.3-1.5,5.8,1c0,0,0.2,0,0.2-0.1
			c0.6-1.3,1.6-0.4,2.4-0.2c1.1,0.2,2.1,0.3,3.4,0.1c1.2-0.2,2.8-0.4,4.2-0.1c1.7,0.3,3.2,1,5,0.6c0.8-0.2,1.9,0.7,2.3-0.8
			C251.9,502,252.1,503.3,253.3,503.3z M294.4,280.9c0.3,0.5-0.5,1.5,0.3,1.5c1.1,0,1-1.5,1.7-2.2c0.4-0.5-0.6-0.8-1.2-0.8
			C293.9,279.3,294.5,280.3,294.4,280.9z M359,325.1c-1.3-0.4-2-0.6-2.7-0.8c-0.5-0.2-0.9-0.3-1.2,0.2c-0.1,0.2-0.1,0.6,0,0.9
			c0.2,0.6,0.7,0.5,1.1,0.4C357.1,325.7,357.7,325.5,359,325.1z"/>
		<path d="M296.2,432.2c-1.6,1.1-3,0.8-4.3,0.5c-1.4-0.2-2.9-0.7-4.1,0.5c-0.2,0.2-0.5,0.4-0.5,0.4c-2.1-1.7-4.6,0-6.8-0.9
			c-0.6-0.2-0.8-0.6-0.9-1.1c-0.6-2.4-0.1-4.8,0.1-7.1c0.1-0.8,0.5-0.8,1.3-0.6c3.3,0.5,6.3-0.4,9.5-1.4c1.1-0.3,2.8-0.7,4.1-0.4
			c1.7,0.4,2.2-1.9,3.8-1.3c0.1-1.3,0.3-2.7,0.1-4c-0.6-3.3-1.9-6.3-3.9-9.1c-0.4-0.5-0.4-0.7-1.1-0.5c-1.5,0.4-2.7,0.2-3.2-1.5
			c-0.2-0.7-0.7-0.5-1.2-0.7c-2-0.7-3.7-1.7-5.3-3.3c-0.9-0.9-3.4-1.2-5.4-1c-2,0.3-3.9-0.2-5.7-1.5c-0.6-0.4-2.1,0.3-3.1,0.6
			c-2.7,0.8-5.4,0.3-8.1-0.3c-0.5-0.1-0.9-0.4-1.5-0.3c-2.4,0.5-4.9-0.1-7.2,1.1c-0.2,0.1-0.6,0.2-0.9,0.1c-0.9-0.4-1.7-1.8-2.7-0.1
			c-0.7-2.2-2,0.3-3.1-0.4c-1.1-0.7-3.2,0.3-3.7-0.1c-2.2-1.7-3.9,1.4-5.7,0.3c-2.3-1.4-4.9,0.9-7.1-0.7c-0.2-0.1-0.8,0.7-1.3,0.8
			c-1.7,0.4-3.4,0.6-5-0.5c-1.3-0.9-3.6-0.7-4.9,0.3c-0.4,0.3-0.7,0.6-1.2,0.4c-2.2-1.2-4.7-1.1-6.9-0.7c-2.6,0.5-4.5-0.1-6.1-1.9
			c-0.1-0.1-0.4-0.4-0.5-0.3c-1,0.5-1.8,0-1.7-0.8c0.1-1.2-1.3-2.4,0.8-3.7c1.9-1.1,3.6-1.2,5.5-1.7c2.6-0.6,4.6-0.3,6.9,0.6
			c0.4,0.2,1,0.2,1-0.5c0-0.6,0.5-0.8,0.7-0.6c1.2,1.3,3.3-0.9,4.2,1.1c0.1,0.1,0.4,0.2,0.4,0.2c1.1-2,3.5,0.1,4.8-1.4
			c0.2-0.2,0.6-0.5,0.7-0.4c2.9,2.4,6,0.4,9,0.4c1,0,2,0.3,2.8,0.5c1.4,0.3,2.4,0.5,3.7-0.4c0.8-0.6,1.6,0.4,2.4,0.9
			c0.4,0.2,0.8,0.6,1.2,0.9c1.3-2.6,3.5,0.4,5.4-1c1.2-0.9,3.2-0.4,5,0.3c1.5,0.6,3.4,1,5.1-0.9c1-1.1,3.2,0.2,4.8,0.4
			c1.9,0.2,3.8,0.7,5.8,0.4c2.7-0.4,5.5,0.2,8.3,0.3c0.4,0,0.8,0.4,1.1,0.7c0.7,0.8,1.4,1.7,2.3,0.2c0.2-0.3,0.5-0.2,0.8-0.1
			c2.7,1.4,5.6,2.4,8.3,3.9c2,1.1,2.9,3.9,5.8,3.8c0.7,0,0.6,1.2,0.6,2c0,1.3-0.1,2.5,1.8,2.4c1-0.1,0.8,1.3,1.5,1.8
			c0.7,0.5,0.9,1.5,2,2c2.3,1.3,2.3,4,2.1,6.2c-0.2,1.5-0.7,2.5,1.2,3.3c0.4,0.2,0.4,2.2-0.3,3c-0.7,0.9-1.7,1.3-1.1,2.8
			c0.3,0.7-0.6,1.4-1.2,1.4c-1.6-0.1-2.1,1.5-3.2,2c-1.2,0.6,1.1,1.7-0.4,2.3c1.6,0.6,1,2.9,2.6,3.5c0.7,0.3,1.5,0.6,0.9,1.6
			c-0.1,0.3-0.1,0.8,0.1,1.1c1.5,2.2,1.1,4.9,1.7,7.4c0.4,1.7,0.4,4-0.2,6c-0.7,2.1-0.2,3.7,1.4,5.3c1.8,1.7,3.9,3.3,4.8,5.7
			c0.5,1.5-0.3,2.9-0.8,4.3c-0.2,0.5-0.7,0.8-0.5,1.4c0.7,2.3-2.5,2.4-2.5,4.3c-2.7-0.4-4.5,2.4-7.4,2c-2-0.3-4.3,1.7-6.1,1.4
			c-1.7-0.3-3.8,2-5-0.9c-0.6,2-3,2.8-5.7,1.8c-0.8-0.3-1.7-0.3-2.6-1c-1-0.8-2.2,0.1-3.1,0.8c-1.2,0.9-2.3,1.4-3.7,0.5
			c-0.7-0.5-1.5-0.2-2.2,0.1c-2.3,1-4-0.1-4.1-2.8c-0.3,0.3-0.5,0.8-0.6,1.1c-0.6,1.4-1.1,2-2.7,1c-0.5-0.3-1.7-0.7-2.6-0.2
			c-0.3,0.2-0.9,0-0.7,0.6c0.1,0.4,0.8-0.1,0.9,0.6c-0.9,0-1.7,0.4-2.2-1c-0.2-0.6-1-2.9-2.6-0.9c-0.2,0.2-0.4-0.1-0.5-0.3
			c-0.4-0.8,0-1.6,0.5-2.1c1.7-1.7,1.6-1.6,1.5-3.8c-0.1-1,1-0.8,1.7-0.6c1.7,0.6,3.6,0.4,5.4,0c0.6-0.1,2.9-1.6,2.3,1.2
			c0.8,0,0.7-1,0.9-0.9c2,0.6,3.9-1.2,5.8-0.6c2.4,0.7,4.9-0.2,7.2,0.8c0.6,0.3,1,0.1,1.1-0.1c1.9-3.1,4.7-0.7,7.1-1.2
			c0.2,0,0.5,0.2,0.6,0.2c2.1-3,6.2-0.4,8.6-2.9c0.7-0.7,2.3-0.7,3.5-1c0.4-0.1,0.7-0.2,0.8-0.7c0.1-0.7-0.4-0.5-0.9-0.6
			c-0.5,0-0.8-0.5-0.8-0.9c0.3-2.7-1.9-1.6-2.9-1.8c-1.5-0.2-3.5,1.6-4-1.5c0-0.1-0.2-0.2-0.3-0.3c-0.9-0.2-2-1.1-1.7-1.4
			c1.1-1.1,0.4-3,2-3.8c1.9-0.9,1.5-2.9,1.4-4.4c-0.1-1.7-0.9-3.5-0.3-5.2c0.6-1.5,0.1-2.1-0.7-3.3
			C296,436.7,295.2,434.7,296.2,432.2z"/>
		<path d="M379.5,419.3c0.5-2.3,2.1-3.6,3.3-5.2c1.5-1.9,3.5-2.3,5.7-2.2c0.2,0,0.5,0.1,0.7,0.1c1.4-0.2,2.6,1,2.1,2.4
			c-0.3,0.9,0.3,0.8,0.6,1c1.4,0.8,0.9,1.6-0.2,2c-1,0.5-1.5,1.1-1.8,2.1c-0.4,1.2-1.3,2.4-2.4,2.5c-1.5,0.2-1.8,0.9-1.8,2.2
			c0,0.8-0.4,1.3-0.9,1.9c-2.3,2.7-5,5.1-7.6,7.5c-1.8,1.8-4.6,3.2-7.3,3.9c-0.3,0.1-0.7,0-1,0.3c-1.2,1.4-1.6,0.6-1.6-0.7
			c0-0.7-0.2-1.4-1.2-1.2c-0.7,0.1-1.7,0.2-0.8,1.4c-0.7,0.4-1.2,0.9-1.8,1.4c-0.4,0.3-0.7-0.5-0.8-1.1c0-0.4-0.1-0.7-0.2-1.2
			c-1,0.3-1.5,1.1-2.4,1.3c-0.7,0.2-1.3,0.6-1.4-0.5c0-0.1-0.2-0.4-0.2-0.4c-3,0.8-3-1.8-3.6-3.4c-0.4-1.1-0.2-2.3-0.9-3.5
			c-0.2-0.3-0.2-1.3-0.4-2.1c-0.4-1.9-1.3-3.7,0-5.8c0.9-1.3-0.4-2.5-2.9-2.2c-2.7,0.3-4.3-2-6.6-2.7c-0.4-0.1-0.5-1.5-0.6-2.3
			c0-0.3,0.4-0.9,0-1c-3-1.1-0.2-3.7-1.3-5.3c-0.3-0.5,0-1.4,0.5-1.8c1.1-1,1.3-2.3,1.5-3.6c0.1-0.8,0.3-1.6,1-2.2
			c0.4-0.3,1.4-0.1,1.1-1c-0.2-0.6-0.8-1.2-1.6-1.1c-0.6,0.1-1.5-0.1-1.7,0.8c-0.4,1.5-1.1,2.2-2.8,1.6c-0.8-0.3-1.6,1-2.8,0.9
			c-0.5,0-1.1,0.2-1.8,0c-1.2-0.3-2.3-1-3.8,0c-0.9,0.6-2-0.6-2.2-1.7c-0.2-0.7,0-1.5,0-2.2c0-0.6,0.7-1.5-0.5-1.6
			c-1-0.1-0.8,0.8-1,1.5c-0.2,0.6,0.4,1.2,0,1.7c-1.9-0.3-2.4-1.2-2-3.1c0.4-1.7-1.2-3.3-0.7-5.2c0.2-0.7,0-1.5,0.6-2
			c0.7-0.7,0.8-1.2,0.2-2.1c-0.8-1.3,0.8-2.3,0.6-3.8c-0.2-2.7,0.8-5.4,1-8.2c0.1-1.4,1.5-2.4,2-3.9c0.9-2.6,1.6-5.1,1.6-7.8
			c0-1.6,1.9-2.3,2.7-3.6c0.3-0.6,0.8-1.2,0.3-1.5c-2.4-1.2-0.6-2.6-0.1-3.7c0.4-0.9,1.7-1.2,1-2.8c-0.2-0.6,1.9-2.5,3.4-3
			c0.7-0.2,1.4-0.4,2.1-0.6c0.7-0.2,2.4-1.3,2,1c0,0.2,0.1,0.6,0.2,0.6c3,1.2,1.4,2.8,0.4,4.3c-0.4,0.6-1,1.2,0.2,1.7
			c1.3,0.5,0.2,1.4-0.1,1.8c-1.1,1.5-2.3,2.9-1.4,5c0.2,0.4,0.1,0.7-0.5,0.8c-0.5,0-0.9,0.5-0.9,0.9c0,2.9-1.4,5.2-2.8,7.6
			c-0.2,0.4-0.6,0.9-0.5,1.2c0.7,2.3-0.5,4-1.7,5.7c-0.9,1.3-2.1,2.4-0.8,4c0.1,0.1,0.1,0.6,0.1,0.6c-2.1,0.7-0.1,2.9-1.4,4
			c-0.3,0.3-0.4,1.3,0.3,1.8c0.2,0.2,0.7,0.5,0.4,0.7c-2.4,1.5,1.1,2.1,0.5,3.4c-0.2,0.3,0.6,0.5,0.9,0.3c2.3-2.1,5.2-1.8,7.9-2
			c2.8-0.2,4.3-2.4,6.4-3.7c1.9-1.2,2.7-3.7,5-4.3c1-0.3,0.4-1.8,1.5-2.4c1.1-0.6,2.3,0.1,3.3-0.8c0.4-0.3,1.8,0.9,1.5-0.9
			c0-0.1,0.8,0.1,1.1,0.4c2.7,2.5,2.3,4.4,0.5,7.8c-1.3,2.4-3.4,3.5-5.1,5.3c-0.5,0.5-0.3,1-0.6,1.5c-0.2,0.4-0.3,0.8-0.4,1.3
			c-0.3,1.7-1.9,0.7-2.7,1.2c-1,0.7,1.4,2-0.4,2.6c-0.1,0-0.4,0.2-0.4,0.2c0.8,2.8-2,4.5-2,7.1c0,0.4,0.1,1-0.1,1.3
			c-0.4,0.5-1.9,0.2-1,1.4c0.6,0.9,2.3,2,2.8,1.4c1.6-1.5,3,0.5,4.4-0.2c1.3-0.6,2.5-0.2,3.6,0.7c0.4,0.3,0.9,0.3,1.2-0.2
			c0.4-0.9-0.9-0.3-0.8-1c0.7,0.1,1.4-0.3,1.8,0.8c0.4,1.2,1.6,1.9,3,2.2c1,0.2,0.6,0.9,0.4,1.4c-0.5,1.4-1.3,3-2.2,3.9
			c-1.7,1.8-1.9,4.2-3.5,5.9c-0.2,0.2-0.4,0.5-0.3,0.6c1,1.1,1.8,2.2,1,3.8c1.1-0.1,2.2,1.1,2.8,0.7c1.5-0.9,3.3-0.4,4.8-1.3
			c2.3-1.3,4.1-3.2,6.2-4.8c0.8-0.6,1.5-1.4,2.5-1.4c1,0,1.8,0,1.6-1.4c-0.1-0.5,0.2-1.1,1-0.6c0.6,0.4,0.9-0.2,1.2-0.6
			c0.1-0.2,0.2-0.6-0.2-0.8c-0.4-0.2-0.8-0.2-1.2,0.3C380.1,419.2,379.7,419.2,379.5,419.3z M345.7,394.2c-0.5,0-0.9-0.2-1,0.4
			c0,0.3,0,0.6,0.3,0.7c1.1,0.3,1.7,0.9,2,2.1c0.2,0.6,1,0.5,1.6,0.4c0.6-0.1,1-0.3,1-1c0-0.5,0.2-1.2-0.4-1.4
			C348.1,395,346.8,394.6,345.7,394.2z"/>
		<path d="M283.3,363.6c-1,0.9-1.5,1.8-3.4,1.8c-2.3,0-4.9,0.4-7.2,1.7c-0.4,0.2-1.2,0.5-1.2,0.4c-1.3-2-3-0.1-4-0.4
			c-3.1-1-6.6,0.4-9.4-1.7c-0.4-0.3-1.2-0.5-1-1.5c0.4-1.6,0-3-1.9-3.4c-0.8-0.2-0.5-0.6-0.3-1.1c0.5-1.7,1-3.3,0.2-5.2
			c-0.3-0.7-0.9-2.4,0.9-2.9c0.4-0.1,0.5-0.3,0.4-0.8c-0.5-3.1,0.9-5.2,3.2-7.3c2.4-2.3,5.5-3.8,7.7-6.4c0.5-0.6,1-1.2,1.1-1.9
			c0.6-2.8,2.1-4.3,4.8-5.7c3.3-1.7,6.5-1,9.8-1.1c0.6,0,1.3,0.2,1.6-0.4c0.6-1.7,2.1-1.2,3-1c1.5,0.4,2.7,1,4.5,0
			c1-0.5,2.8-1,4.3-0.1c0.5,0.3,1.4,0.3,1.7,0c1.5-1.7,3.5-1.7,5-0.7c2.3,1.5,3.9,0,5.8-0.6c1.3-0.4,2.8-0.6,4.4,0.2
			c1.3,0.7,3.2,0.4,4.8-0.2c2.1-0.8,3.5,0,4.5,2.1c0.6,1.3,1.3,3.1,3.6,2.6c-0.3,0.8-1.4,0.6-1,1.4c0.8,1.8-0.8,3.3-0.5,5.2
			c0.2,1.5-2.2,2.2-2.5,4c0,0.1-0.9,0-1.1-0.5c-0.2-0.7-0.6-0.8-1.2-0.4c-0.6,0.5-0.4,0.9,0.3,1.2c1.1,0.5,0.8,0.8,0,1.5
			c-0.8,0.7-1.5,1.5-2.6,1.6c-2.2,0.1-3.2,2.2-4.7,3.3c-2.2,1.6-4.3,3.6-6.9,4.4c-1.5,0.5-1.5,1.3-1.5,2.2c0,0.9-0.3,1.5-1,1.2
			c-1.4-0.5-1.7,0.3-2,1.3c-0.2,0.8-0.7,1-1.4,1.2c-2.3,0.6-4.3,2.5-6.9,1.9c-0.1,0-0.4,0.1-0.4,0.2c-0.7,3.4-3.6,2.4-5.7,2.7
			c-0.9,0.1-1.1,0.4-1.5,1.2c-0.3,0.6,0,1.7-1.1,1.7C283.4,365.1,284,363.8,283.3,363.6z M314.3,338.6c-0.4-2-0.4-3.9,1.9-4.7
			c0.1,0,0.3-0.6,0.1-0.8c-0.2-0.3-0.8-0.6-0.9-0.5c-0.7,0.7-1.8,0.1-2.1,0.3c-3.2,1.1-6.5,0.9-9.8,0.7c-0.6,0-1.5,0-1.4,1
			c0.1,0.7-0.4,0.7-0.9,0.6c-1.3-0.3-2.7,0.5-3.9-0.3c-0.3-0.2-0.6-0.4-0.7,0.1c-0.3,1.8-1.6,0.9-2.4,0.8c-0.4,0-0.8-0.2-1.3-0.2
			c-1.9,0.1-3.6,1.3-5.8,0.5c-1.4-0.5-3.5-1.1-5-0.5c-1.1,0.4-1.7,0.2-2.2-0.5c-0.5-0.6-1.2-0.4-0.9,0c0.8,1.4-0.2,1.1-0.8,1.2
			c-0.6,0.2-1.6,0.1-1.7,0.8c-0.2,1.6-1.6,2.1-2.2,3.1c-1.2,2.1-4.2,2.8-4.4,5.6c0,0.2-0.3,0.4-0.4,0.5c-1.4,0.4-2.5,1.3-3.5,2.2
			c-1,0.9-2,2-2.9,3.1c1.9,1.4-0.1,2.6,0,3.8c-0.8,0.4-1.1-1.6-1.8-0.2c-0.4,0.8,0.3,1,0.8,1.6c2.6,2.6,5.9-0.6,8.5,1.3
			c0,0,0.3-0.1,0.3-0.3c0.7-1.9,2.6-1.1,3.1-0.7c0.9,0.7,2,0.4,2.3,0.1c1.2-1.2,2.3-1.1,3.6-0.3c0.4,0.2,0.7-0.3,0.6-0.7
			c-0.6-2.4,1.1-1.9,2.2-1.5c0.9,0.3,1.5,0.2,2.2-0.4c0.5-0.4,1.1-1,1.8-0.9c2.2,0.3,3.4-2.4,5.6-1.8c1.1-2.3,4.8-0.2,5.5-3.3
			c0,0,0.1,0,0.2-0.1c1.8-0.8,3.1-2.1,4.4-3.6c0.9-1,1.5-2.6,2.6-3.1c2.9-1.3,5.5-3,7.4-5.6C313.1,336.9,312.6,338.6,314.3,338.6z"
			/>
		<path d="M226,307.5c2.3,0.3,4.6-0.2,6.4,1.5c0.1,0.1,0.4,0,0.6-0.1c1.6-0.6,3-0.9,3.2,1.6c0,0.4,0.7,0.5,1.2,0.5
			c0.4,0,1.2,0.1,0.8,0.7c-0.9,1.4,0.6,1.9,1.1,2.6c1.4,1.8,2.2,3.5,0.7,5.6c-0.4,0.6,0.2,0.8,0.7,1.1c1.5,0.8,2.3,1.8,1.4,3.6
			c-0.5,1.1-0.4,2.1,0.4,3.1c0.9,1.2,0.9,2.6,0.3,4c-0.3,0.8,1.1,1.3,0.3,2.2c2.8,2.1,0.2,4.5,0.2,6.7c0,1.9-1.1,4.3-2.9,5.5
			c-1.7,1.2-3.3,2.7-5.7,3.1c-2.1,0.4-3.1-0.4-3.8-2.1c-1.2-3-3.3-5.3-5.3-7.6c-1.2-1.3-2.9-2.4-2.2-4.7c0.1-0.4,0-1-0.2-1.3
			c-2.7-2.6-1.6-5.9-1.5-9c0.1-1.6-0.7-2.9-1.6-4.2c-0.1-0.2-0.3-0.4-0.3-0.5c0.8-2,0.5-4.4,2-6.2c0.1-0.2,0.3-0.3,0.4-0.4
			c-2.3-1.5,0.9-2.6,0.4-4.3C222.4,308.3,224.7,307.5,226,307.5z M229.4,317.2c0.8,1.1,1.1,1.8,0.3,3c-0.6,0.9-1.5,2.4-0.9,3.5
			c1.1,1.9,1.4,3.9,1,6c-0.4,2.3,2.3,3.2,2.2,5.4c0,0,0.6,0.2,0.8,0.2c0.6-0.2,0.8,0.1,0.9,0.7c0.1,0.5,0.3,1.2,1,0.9
			c0.5-0.2,0.8-0.8,0.8-1.5c0.1-2-0.7-4.1,0.6-6.1c0.2-0.3,0.1-1.7-0.4-2.3c-1.9-2.6-3.2-5.5-4.3-8.4
			C231,317.6,230.4,317.4,229.4,317.2z"/>
		<path d="M284.6,314c-1.4,1.5-3.6,2.1-4,4.3c-0.1,0.7-0.6,0.5-0.8,0.3c-1.4-1.4-3.2-2.2-4.5-3.9c-1.2-1.5-1.5-4.1-3.9-4.6
			c0.5-2-1.4-3.8-0.5-5.7c0.3-0.7,0.3-1.2,0-1.9c-0.3-0.7-1.4-1.6,0.1-2.2c0.3-0.1,0.1-0.6-0.1-0.8c-1.8-2-1.9-4.2-1-6.6
			c0.4-1.2,0.2-2.3-0.1-3.5c-0.3-1.3,0-2.1,1.3-3c1.5-1,3.3-1.5,4.7-2.7c1.2-1,1.5-0.8,2.9,0.4c0.5,0.5,0.9,0,1.4-0.3
			c1.9-1.3,3.7-1,5.2,0.6c1,1,2.3,1.8,3.7,2.2c0.6,0.2,1.1,0.2,1.1,0.8c-0.1,1.9,1.2,2.4,2.6,2.6c2.2,0.4,0.8,2.6,1.8,3.8
			c0.6,0.7,1.1,1.9,1.7,2.8c1.3,2.2,1.6,4.6,1.5,7c0,0.9,0.4,1.5,0.6,2.1c0.9,2.6-0.9,4.9-0.9,7.4c0,1.3-1.3,1.9-2.1,2.4
			c-1.4,1-2.8,2.1-4.1,3.3c-0.9,0.8-2.1,0.2-3-0.2C286.5,317.8,283.9,317.4,284.6,314z M278.7,290.3c-0.1,2.7-1,5.1-1,7.5
			c0,1.1-0.3,3.1,0,3.3c3,1.8,1.8,6,5,7.9c2.1,1.3,2.3,2.1,4.4,1.5c0.2-0.1,0.5,0,0.6,0.1c1.6,1.5,1.5,0.4,1.9-1
			c0.6-2.4-0.4-5.1,1.1-7.4c0.3-0.4-2.2-5.1-2.7-5.1c-2.1-0.3-2.6-1.6-2.5-3.4c0-1-0.5-1.9-1.4-1.4
			C281.6,293.7,280.5,291.6,278.7,290.3z"/>
	</g>
</g>
</svg>
