<?xml version="1.0" encoding="utf-8"?>
<!-- Generator: Adobe Illustrator 23.0.3, SVG Export Plug-In . SVG Version: 6.00 Build 0)  -->
<svg version="1.1" id="レイヤー_1" xmlns="http://www.w3.org/2000/svg" xmlns:xlink="http://www.w3.org/1999/xlink" x="0px"
	 y="0px" viewBox="0 0 595.28 841.89" style="enable-background:new 0 0 595.28 841.89;" xml:space="preserve">
<g>
	<path d="M505.24,561.42c-0.52,11.86-0.32,24.97-1.56,38.02c-0.98,10.32-4.1,19.77-10.51,28.07c-5.42,7.03-10.93,13.95-17.02,20.42
		c-7.23,7.69-14.28,15.55-21.29,23.45c-11.11,12.53-24.88,18.71-41.72,18.66c-12.64-0.04-25.12-0.27-36.41-6.92
		c-9.32-5.49-18.05-11.62-21.84-22.5c-0.36-1.05-0.83-1.68-2.04-1.72c-1.24-0.04-1.54,0.72-2.06,1.65
		c-9.55,17.09-24.72,25.33-43.72,26.68c-12.22,0.87-24.48,0.07-36.64-1.6c-9.33-1.29-17.78-5.22-26.13-9.26
		c-7.07-3.43-14.41-6.32-20.99-10.81c-4.98-3.4-7.87-7.96-7.86-13.7c0.02-12.46-2.3-24.62-3.84-36.89c-0.6-4.77-0.5-9.58,1.79-14.04
		c1.25-2.45,2.77-4.67,5.65-5.28c1.83-0.39,2.29-1.89,3.15-3.13c2.13-3.08,4.44-5.94,8.77-5.49c1.82,0.19,1.72-0.96,1.62-2.14
		c-0.81-9.55,4.77-14.82,12.55-18.47c1.54-0.72,1.97-1.41,2.01-3.08c0.2-8.8,4.04-13.7,12.52-16.31c6.72-2.06,13.39-4.17,20.54-4.52
		c6.15-0.3,11.6-3.23,17.01-5.95c1.78-0.89,3.56-1.65,5.56-1.87c4.84-0.51,8.02,2.06,8.02,6.89c0,5.9,0.2,11.86-2.09,17.49
		c-1.02,2.49-0.5,3.64,2.45,3.5c6.06-0.29,10.72,2.88,15.1,6.55c1.56,1.31,2.39,3.1,2.71,5.12c1.96,12.41-5.36,24.98-17.24,29.27
		c-22.86,8.25-45.62,9.04-68.2-1.13c-2.63-1.18-4.89-2.65-6.69-4.96c-0.86-1.1-1.11-3.84-3.41-2.44c-2.22,1.35-3.82,3.42-2.71,6.4
		c0.68,1.82,2.13,2.96,3.65,3.98c8.47,5.68,17.88,8.98,27.97,9.81c13.9,1.14,27.93,1.32,41.78,0.17
		c10.17-0.84,20.03-4.5,28.68-10.43c3.76-2.58,5.98-6.27,6.66-10.83c0.52-3.49-0.08-6.31-3.73-8c-2.58-1.2-4.4-3.38-3.34-6.47
		c1.05-3.07,3.49-3.86,6.48-2.83c2.44,0.84,2.42-1.18,2.96-2.48c4.42-10.55,10.95-19.28,21.18-24.9c8.51-4.68,17.49-4.82,26.68-2.93
		c2.95,0.61,4.92,2.43,4.46,5.65c-0.47,3.26-2.91,4.23-5.9,4.12c-3.92-0.15-7.74-1.05-11.76-0.74
		c-12.24,0.93-24.08,14.23-27.02,28.06c-0.37,1.75,0.4,2.44,1.95,3.1c1.59,0.68,2.62,1.06,3.9-0.63
		c6.26-8.26,15.06-10.86,24.94-10.81c1.1,0.01,2.27,0.16,3.29,0.54c2.16,0.8,3.56,2.37,3.4,4.79c-0.15,2.38-1.58,3.95-3.9,4.36
		c-2.06,0.37-4.19,0.47-6.29,0.56c-8.04,0.34-13.38,4.48-16.56,11.68c-0.85,1.93-1.47,4.02-3.37,5.23c-1.36,0.86-1.27,2.05-1,3.34
		c2.79,13.63,2.1,27.47,2.49,41.24c0.07,2.39-0.04,4.41,3.06,5.04c1.75,0.36,2.55,2.08,2.76,3.9c0.47,4.17,2.79,7.23,5.76,10
		c9.19,8.59,19.74,13.85,32.57,13.84c4.5,0,9.01,0.18,13.51,0.14c11.58-0.12,21.72-4.27,29.28-12.89
		c11.78-13.44,24.32-26.2,35.82-39.89c7.8-9.29,12.49-19.54,13.04-31.75c1.06-23.22,2.28-46.5,0.58-69.65
		c-1.86-25.36-13.61-45.45-36.72-57.81c-4.07-2.17-8.53-2.75-13.03-3.15c-1.26-0.11-2.53-0.04-3.8-0.12
		c-4.77-0.3-7.26-2.22-7.12-5.46c0.14-3.28,2.62-4.62,7.66-4.49c20.98,0.54,35.99,11.08,47.51,27.84
		c10.94,15.93,16.82,33.26,16.07,52.75C504.98,543.58,505.24,551.9,505.24,561.42z M326.88,647.64l0.05,0.13
		c-0.67-3.69,0.65-6.7,3.54-8.87c2.54-1.91,4.68-0.16,7.09,2.12c-0.15-4.28-0.55-8.35,1.5-10.91c3.22-4,5.8,1.24,9.05,2.09
		c0.18-8.8-0.38-17.24-2.46-26.41c-2.74,3.54-5.24,6.16-8.41,8.01c-12.59,7.32-25.85,12.35-40.71,12.12
		c-8.73-0.14-17.46,0.1-26.19-0.15c-6.03-0.18-12.13-0.3-17.99-2.06c-11.13-3.34-22.08-7.03-30.54-16.79
		c-0.13,2.3-0.4,3.71-0.25,5.07c1.44,13.28,3.83,26.46,4.14,39.86c0.07,3.01,2.02,4.88,4.42,6.27
		c10.61,6.15,21.64,11.52,33.23,15.45c14.39,4.88,29.51,4.38,44.37,3.56c11.78-0.65,22.33-5.21,29.92-15.14
		c2.46-3.23,4.26-7.53,9.25-8.02c1.07-0.11,1.12-1.14,1.13-1.98c0.03-3.85,0.01-7.69,0.01-12.63c-2.1,2.73-3.55,5.36-6.18,4.52
		c-5.28-1.7-5.35,1.41-5.35,5.02c0,3.8-1.56,6.56-5.52,7.4c-1.86,0.4-3.97,0.51-4.32-1.98c-0.35-2.41,1.61-2.08,3.17-2.04
		c1.28,0.04,2.28-0.56,2.44-1.85c0.23-1.94-1.42-1.34-2.36-1.42C328.69,648.91,327.82,648.24,326.88,647.64z M279.8,599.81
		c4.1,0.16,11.68-0.91,19.06-2.56c6.9-1.54,14.48-3,18.02-10.33c4.39-9.09,3.9-14.02-7.9-14.51c-0.56-0.02-1.15,0.05-1.68-0.1
		c-5.32-1.55-11.86-6.06-8.77-13.52c1.11-2.68,1.46-5.7,2.02-8.59c0.6-3.13-0.79-3.71-3.38-2.35c-6.87,3.61-14.3,4.72-21.93,5.51
		c-5.42,0.56-10.72,2.27-15.67,4.71c-1.63,0.8-2.43,2.29-2.39,4.16c0.03,1.26,0.49,2.19,1.88,2.35c8.57,0.97,15.27,7.47,24.01,8.07
		c2.52,0.17,3.99,2.07,3.96,4.69c-0.04,2.67-1.73,4.25-4.21,4.46c-4.76,0.41-9.1-0.01-13.61-2.82c-6.34-3.96-13.4-7.37-21.29-2.95
		c-4.48,2.51-5.97,5.18-5.3,10.35c0.55,4.24,2.62,6.68,7.14,6.62c0.67-0.01,1.47,0.2,2,0.59
		C259.08,598.96,267.59,599.57,279.8,599.81z M341.15,637.21c0.12,1.02-0.29,2.55,1,2.46c1.91-0.13,2.08-2.02,2.23-3.53
		c0.11-1.17-0.39-2.68-1.61-2.53C340.63,633.86,341.56,635.99,341.15,637.21z"/>
	<path d="M226.35,507.06c7.49,1.24,14.79-2.37,22.24-5.9c13.16-6.24,25.9-12.92,35.1-24.74c2.56-3.29,4.52-6.53,4.33-11.03
		c-0.19-4.65,2.03-6.51,6.51-7.07c9.15-1.13,18.24,0.28,27.36,0.51c6.11,0.16,11.44,2.9,16.08,6.75c9.31,7.73,15.3,17.4,17.39,29.49
		c2.59,15.01-7.85,24.03-18.67,26.99c-9.83,2.69-20.05,2.83-30.19,2.14c-7.06-0.47-13.32-3.44-18.87-7.75
		c-1.57-1.22-2.85-1.37-4.9-1.13c-11.03,1.33-22.12,2.17-32.99-1.09c-1.91-0.57-3.3,0.14-4.84,0.67
		c-17.99,6.13-35.39,4.03-52.4-3.71c-5.06-2.3-7.3-6.28-7.39-11.73c-0.15-8.95,1.72-17.28,6.74-24.85
		c4.91-7.41,9.98-14.67,16.75-20.53c1.1-0.96,1.53-1.7,0.7-3.17c-1.71-3.02-0.31-5.45,2.04-7.39c6.01-4.97,11.29-10.62,15.55-17.14
		c12.5-19.15,36.57-15.88,47.89-5.03c6.7,6.42,12.25,13.96,19.59,19.77c2.12,1.68,2.79,4.3,1.08,6.84c-1.8,2.67-4.44,2.87-7.12,1.68
		c-3.41-1.51-5.89-4.25-8.49-6.84c-5.16-5.16-9.53-11.05-15.49-15.47c-6.89-5.11-20.71-5.41-26.84,3.53
		c-5.58,8.15-11.88,15.7-19.97,21.55c-0.94,0.68-1.27,1.36-0.67,2.47c1.93,3.57,0.12,6.19-2.3,8.59
		c-6.15,6.08-11.12,13.02-15.35,20.54c-2.7,4.78-2.61,9.97-2.72,15.18c-0.03,1.79,1.11,2.29,2.47,2.93
		C207.31,506.03,216.17,507.13,226.35,507.06z M314.14,513.08c8.92-0.19,15.86,0.26,22.4-2.59c6.16-2.69,8.5-6.57,8.07-13.23
		c-0.39-5.98-2.97-11.09-6.43-15.78c-3.89-5.27-8.23-10.46-15.05-11.43c-7.06-1-14.29-0.86-21.44-1.22
		c-1.37-0.07-2.46,0.12-2.73,1.84c-0.42,2.66-1.44,5.14-2.85,7.44c-0.86,1.41-0.63,2.38,1.05,2.8c1.22,0.31,2.44,0.69,3.69,0.86
		c6.12,0.82,12.29,1.37,18.37,2.43c3.77,0.66,5.77,3.67,4.87,6.63c-1.03,3.36-3.54,4.44-6.91,4.02c-4.32-0.53-8.67-0.82-12.97-1.47
		c-4.41-0.67-9.31-0.32-12.96-3.14c-4-3.09-5.51,0.27-7.41,2.21c-2.17,2.2-1.42,4.71,0.6,6.69
		C293.26,507.77,302.34,515.87,314.14,513.08z M266.26,504.52c0.06,0.28,0.12,0.56,0.19,0.84c1.86,0,3.73,0.07,5.59-0.03
		c0.78-0.04,2.32,0.51,1.95-1.19c-0.25-1.19-0.9-2.59-2.57-1.97C269.64,502.81,267.97,503.72,266.26,504.52z"/>
	<path d="M251.84,223.34c-0.09-12.54,7.76-22.57,20.66-26.63c1.89-0.6,4.85-0.17,5.35-2.57c0.59-2.83,0.25-5.88,0.13-8.82
		c-0.06-1.42-1.4-1.26-2.3-1.09c-5.72,1.06-11.8-0.33-17.18,3.27c-3.3,2.21-6.88,1.11-9.56-1.75c-2.74-2.92-2.87-6.34-0.95-9.76
		c2.23-3.97,6.03-5.75,10.21-6.89c5.36-1.45,10.86-1.6,16.35-1.55c2.45,0.02,3.37-0.8,2.75-3.22c-0.14-0.54-0.13-1.12-0.16-1.68
		c-0.29-5.83,2.35-9.71,7.02-10.38c4.74-0.68,8.55,2.62,9.71,8.43c1.41,7.05,1.41,7.05,8.89,6.22c1.82-0.2,3.64-0.47,5.47-0.48
		c4.29-0.02,7.56,2.49,8.39,6.28c0.91,4.12-0.97,7.72-5.07,9.58c-3.97,1.81-8.24,2.05-12.44,1.7c-4.26-0.35-3.92,2.14-3.93,4.94
		c-0.01,2.85-0.19,4.83,4,4.86c17.92,0.13,31.99,15.72,30.79,33.62c-0.57,8.57-11.49,20.5-20.06,21.73
		c-3.76,0.54-6.58-1.24-8.33-4.51c-1.82-3.41-1.06-6.66,1.53-9.3c1.66-1.69,3.76-2.94,5.66-4.39c4.76-3.63,5.43-6.19,3.08-11.67
		c-2.17-5.07-7.94-8.8-13.4-8.73c-2.58,0.03-4.04,0.67-4.06,3.82c-0.03,7.19-0.93,14.35-2.96,21.26
		c-2.83,9.63-10.21,15.32-20.13,15.87c-7.9,0.44-14.84-4.64-17.3-12.75C252.46,233.74,251.88,228.57,251.84,223.34z M277.71,213.16
		c-1.04,0.08-1.34,0.03-1.57,0.14c-6.91,3.16-9.88,13-6.04,19.77c0.94,1.66,2.07,1.1,3.17,0.45c1.72-1.03,2.29-2.9,2.55-4.67
		C276.56,223.73,277.08,218.59,277.71,213.16z"/>
	<path d="M375.69,391.46c1.11,11.8-3.6,22.38-11.19,31.64c-7.74,9.44-18.82,10.93-30.2,10.96c-0.81,0-1.84-0.21-2.39-0.73
		c-5.37-5.04-12.66-7.96-15.24-16.02c-3.48-10.91-6.68-21.74-6.51-33.34c0.2-14.38,8.72-25.62,23.17-30.18
		c12.85-4.06,27.87,1.03,35.78,11.81C374.67,373.2,375.76,381.83,375.69,391.46z M321.25,386.63c-0.29,2.83-0.44,5.06,0.03,7.31
		c1.81,8.75,7.26,10.98,14.69,5.96c7.78-5.26,12.09-20.52,8.01-28.94c-1.77-3.65-4.35-6.78-8.8-7.03c-4.43-0.25-7.32,2.5-9.52,5.98
		C322.31,375.18,320.99,381.01,321.25,386.63z M357.96,404.66c-2.46,1.25-6.37,1.08-8.49,4.06c-1.22,1.71,1.55,8.23,3.85,9.2
		c2.85,1.19,4.01-1.73,5.58-3.22c1.29-1.23,2.39-2.8,3.15-4.41C363.3,407.63,361.38,404.67,357.96,404.66z M365.63,395.83
		c-0.15-1.79,0.13-3.97-2.03-4.17c-1.75-0.17-2.31,1.77-2.71,3.25c-0.25,0.92-0.36,1.93-0.3,2.88c0.12,1.69,0.35,3.47,2.59,3.65
		c2.65,0.21,1.45-2.17,2.07-3.31C365.64,397.45,365.54,396.51,365.63,395.83z"/>
	<path d="M293.67,261.57c4.36-0.23,8.71-0.46,13.07-0.68c1.41-0.07,3.19-0.34,4.07,0.68c3.47,4.05,4.91,0.61,6.7-1.61
		c4.15-5.14,9.09-9.22,15.43-11.36c2.62-0.88,5.61-1.59,6.79,1.86c1.12,3.3-1.63,4.4-4.11,5.19c-6.39,2.04-10.75,6.53-14.38,11.85
		c-1.9,2.8-3.7,5.27-7.33,2.29c-0.43-0.35-0.93-0.54-1.55-0.24c-7.72,3.67-16.09,2.43-24.11,2.58c-14.16,0.27-27.36,3.56-40.65,8.26
		c-16.58,5.86-31.81,13.9-44.87,25.38c-15.55,13.68-24.51,31.08-28.39,51.83c-3.64,19.46-4.64,38.96-3.28,58.38
		c0.94,13.48,1.21,26.94,1.51,40.4c0.14,6.55-1.3,10.86-7.37,12.59c-2.53,0.72-4.79,2.34-7.24,3.39c-2.74,1.17-5.68,1.89-7.23-1.59
		c-1.39-3.14,0.66-4.99,3.26-6.32c1.25-0.64,2.43-1.58,3.76-1.89c5.58-1.34,6.76-4.82,6.12-10.16c-0.65-5.42-0.31-10.96-0.41-16.45
		c-0.08-4.72,0.66-9.55-2.65-13.73c-0.77-0.97-0.75-2.69-0.78-4.08c-0.39-14.93-0.61-29.94,1.07-44.72
		c2.6-22.77,7.83-44.89,22.9-63.38c4.3-5.28,8.94-10.18,14.21-14.38c20.62-16.43,44.32-26.45,69.83-32.32
		C276.4,261.42,285.08,261.56,293.67,261.57z"/>
	<path d="M98.66,567.97c1.21-16.09,0.17-32.45,5.16-48.12c6.58-20.66,18.05-38.01,35.35-51.31c0.89-0.68,1.78-1.42,2.79-1.87
		c2.08-0.92,4.14-0.95,5.79,0.92c1.78,2.02,1.62,4.32,0,6.15c-1.84,2.09-4.11,3.82-6.23,5.65c-18.7,16.09-29.26,36.43-31.41,60.99
		c-1.45,16.55-1.89,33.15-1.96,49.76c-0.04,9.06,1.76,17.58,6.52,25.4c8.35,13.73,16.81,27.29,30.28,36.9
		c17.86,12.75,37.89,16.46,59.26,14.97c3.06-0.21,6.01-1.26,8.83-2.68c2.31-1.16,4.78-1.15,6.37,1.28c1.63,2.48,0.95,4.83-1.1,6.84
		c-1.78,1.75-4.04,2.58-6.38,3.08c-17.85,3.83-35.34,2-52.19-4.49c-29.15-11.23-46.32-34.17-58.54-61.6
		c-2.61-5.87-2.75-12.34-2.84-18.68C98.26,583.45,98.03,575.7,98.66,567.97z"/>
	<path d="M172.82,402.92c-0.26-4.93,0.03-10.11,1.97-15.05c5.83-14.83,18.42-19.07,32.54-16.45c2.98,0.55,5.24,2.69,6.92,5.22
		c5.1,7.64,7.87,16.12,8.83,25.2c0.28,2.65,0.21,5.35,0.55,7.99c2.33,18.11-7.05,25.52-22.96,28.52c-3.13,0.59-6.97,1.87-9.37-0.55
		c-3.66-3.67-9.73-3.29-12.42-8.5c-2.91-5.62-4.32-11.55-5.23-17.68C173.25,408.86,173.11,406.04,172.82,402.92z M182.22,397.08
		c0,1.68-0.22,3.4,0.04,5.04c0.67,4.25,3.84,6.56,7.72,5.85c7.8-1.42,14.66-12.84,12.02-20.31c-1.45-4.1-4.67-6.84-8.83-7.57
		c-4.19-0.73-6.56,2.37-8.49,5.67C182.63,389.27,182.01,393.09,182.22,397.08z M213.67,419.87c-0.34-2,0.13-4.78-3.37-4.99
		c-2.94-0.17-5.35,2.56-5.01,6.34c0.18,1.96-1.05,5.21,2.68,5.39C211.11,426.77,213.62,423.74,213.67,419.87z M215.88,407.32
		c-0.85-1.07,0.37-3.58-2.05-3.71c-1.57-0.08-2.44,1.72-1.91,3.07c0.72,1.83-0.3,5.04,1.87,5.3
		C215.81,412.22,215.29,409.22,215.88,407.32z"/>
	<path d="M395.48,510.31c18.16-0.15,33.45,7.35,48.06,16.74c4.03,2.59,6.62,6.51,8.26,10.95c1.75,4.75,3.29,9.58,4.72,14.43
		c1.17,3.95-0.07,6.95-3.08,7.59c-3.68,0.79-5.44-1.55-6.46-4.59c-1.29-3.86-2.44-7.78-3.64-11.67c-1.44-4.64-4.28-8.04-8.48-10.59
		c-14.4-8.75-29.8-14.73-46.78-12.44c-18.02,2.44-33.31,9.94-40.83,28.29c-2.68,6.53-4.99,13.13-6.71,19.96
		c-0.24,0.95-0.45,1.92-0.81,2.84c-1.1,2.83-3.05,4.5-6.2,3.65c-3.25-0.88-3.9-3.5-3.25-6.37c2.07-9.2,4.77-18.16,8.89-26.73
		C350.64,518.53,371.54,511.79,395.48,510.31z"/>
	<path d="M446.17,400.48c1.05,10.79-0.47,21.84-1.17,32.92c-0.2,3.2-1.56,5.6-5.05,5.53c-3.26-0.07-4.55-2.46-4.76-5.42
		c-0.35-4.8,0.59-9.53,0.81-14.29c1.18-25.84,0.6-51.54-9.14-76.07c-7.05-17.75-16.59-33.75-32.4-45.3
		c-2.36-1.72-4.32-4.03-6.27-6.24c-2.03-2.29-2.31-4.97-0.01-7.17c2.19-2.11,4.8-1.66,6.81,0.36c7.94,7.98,16.94,14.85,24.32,23.4
		c1.19,1.38,2.25,2.89,3.18,4.46C438.48,339.61,447.46,368.49,446.17,400.48z"/>
	<path d="M195.73,226.09c0,11.95-3.58,22.79-7.24,33.57c-1.49,4.38-5.84,6.5-9.75,5.43c-4.52-1.24-6.89-5.07-5.9-10.17
		c1.52-7.86,4.77-15.31,5.65-23.34c1.52-13.96-0.17-11.74-10.12-10.32c-4.04,0.58-7.95,1.68-11.66,3.47
		c-5.07,2.44-9.89,1.19-12.13-2.99c-2.29-4.26-0.95-9.08,4.17-11.7c10.09-5.16,21.01-7.44,32.27-6.21
		c8.11,0.88,13.41,7.15,14.39,15.44C195.69,221.63,195.64,224.04,195.73,226.09z"/>
	<path d="M426.77,240.84c0.36-11.12,0.75-22.24,5.55-32.61c0.59-1.27,1.29-2.53,2.17-3.59c2.87-3.47,6.97-4.3,10.59-2.29
		c3.59,1.99,5.38,6.11,3.55,10.16c-4.99,11.05-4.89,22.71-4.69,34.41c0.04,2.14-0.55,5.1,1.9,5.99c2.15,0.77,3.57-1.76,5.15-3.08
		c1.07-0.91,1.98-2.02,3.09-2.87c3.33-2.56,7.59-2.55,10.52-0.08c3.06,2.57,3.77,6.48,1.89,10.35
		c-4.07,8.38-15.69,14.15-24.74,12.49c-6.46-1.19-10.56-4.94-12.76-10.97C426.87,252.96,426.46,246.95,426.77,240.84z"/>
	<path d="M98.86,240.1c0-0.29-0.06-1.42,0.01-2.54c0.31-4.92,3.31-8.26,7.65-8.57c4.35-0.31,8.12,2.56,8.77,7.38
		c0.86,6.4,1.2,12.86,1.76,19.3c0.3,3.42,1.44,6.57,2.92,9.63c1.11,2.29,2.28,3.02,4.15,0.62c1.91-2.44,4.15-4.6,6.83-6.21
		c5.03-3.03,9.99-2.37,12.77,1.69c2.66,3.88,1.56,8.51-3.08,12.05c-2.38,1.82-4.24,4.09-6.25,6.25c-7.54,8.06-16.91,8.16-24.61,0.15
		c-6.93-7.2-8.99-16.36-9.98-25.86C99.34,249.64,99.2,245.28,98.86,240.1z"/>
	<path d="M240.3,562.38c-0.03,2.8-1.24,4.67-3.71,5.24c-2.95,0.68-5.06-0.96-5.84-3.62c-3.18-10.77-11.97-16.28-20.42-22.09
		c-3.46-2.38-7.5-3.03-11.65-3.11c-11.41-0.22-22.77,0.41-34.06,2.03c-8.83,1.27-14.57,6.71-18.96,14.01
		c-1.01,1.68-1.93,3.46-3.19,4.94c-1.69,1.97-3.91,2.91-6.36,1.29c-2.35-1.55-2.88-3.99-1.73-6.33
		c5.8-11.86,13.91-21.31,27.72-23.63c12.36-2.08,24.87-2.65,37.41-2.41c12.52,0.25,21.36,7.75,30.13,15.32
		c5.24,4.52,8.9,10.09,10.42,16.94C240.17,561.5,240.24,562.06,240.3,562.38z"/>
	<path d="M88.84,242.88c-1.91,15.42,1.86,29.04,4.65,42.78c0.33,1.62,1.36,2.72,2.39,3.88c2.69,3.04,3.51,6.35,1.27,10.02
		c-2,3.28-5.83,4.72-9.95,3.63c-4.12-1.08-6.86-3.77-8.16-7.79c-4.64-14.38-6.89-29.21-7.87-44.24c-0.23-3.53,0.55-7.02,1.72-10.34
		c1.5-4.23,5.68-6.51,9.68-5.58C86.53,236.15,88.99,239.64,88.84,242.88z"/>
	<path d="M366.57,219.74c0.68-0.13,0.99-0.11,1.21-0.24c5.56-3.18,9.09-3.07,12.11,0.39c3.02,3.46,2.64,7.98-1.08,12.62
		c-7.62,9.54-16.48,9.57-24.22,0.09c-7.05-8.64-6.43-25.54,1.25-33.65c3.12-3.3,7.69-3.97,11.08-1.63c3.41,2.36,4.5,6.72,2.54,10.92
		C367.8,211.82,366.02,215.31,366.57,219.74z"/>
	<path d="M476.65,284.31c7.35-1.87,10.54-1.18,12.86,2.65c2.39,3.94,1.3,7.7-3.77,12.93c-2.05,2.11-4.01,4.36-6.24,6.27
		c-5.78,4.93-13.35,3.73-17.46-2.61c-4.28-6.59-4.14-22.32,0.24-28.8c2.41-3.56,6.65-4.98,10.31-3.46c3.61,1.51,5.45,5.04,4.8,9.32
		C477.2,281.81,476.91,283,476.65,284.31z"/>
	<path d="M503.59,356.65c0.43-6.5,0.85-13.51,1.37-20.52c0.1-1.39,0.45-2.77,0.82-4.13c1.48-5.45,5.44-8.37,10.04-7.47
		c4.55,0.89,6.86,4.7,6.29,10.34c-0.77,7.55-1.39,15.11-1.33,22.72c0.02,2.83-0.23,5.64-1.15,8.32c-1.35,3.99-4.9,6.37-8.67,5.96
		c-4.05-0.44-7.02-3.57-7.33-7.97C503.46,361.67,503.59,359.42,503.59,356.65z"/>
	<path d="M419.41,227.26c0,1.93,0.02,2.63,0,3.33c-0.22,5.68-3.36,9.4-8.06,9.54c-4.61,0.14-8.34-3.55-8.85-8.96
		c-0.25-2.65-0.16-5.34-0.35-8c-0.26-3.68-1.04-7.06-3.64-10.06c-3.11-3.6-2.77-8.06,0.19-11.08c2.95-3.02,7.36-3.38,11.16-0.67
		c5.26,3.74,7.77,9.15,8.61,15.36C418.99,220.62,419.18,224.56,419.41,227.26z"/>
	<path d="M488.52,322.16c4.85,0.14,9.09,4.84,7.76,9.49c-2.2,7.71-2.2,15.53-2.33,23.39c-0.05,2.96-0.97,5.53-3.34,7.43
		c-4.96,3.99-12.41,1.12-12.98-5.52c-0.77-8.94-1.06-18.01,1.71-26.77C480.96,325.08,484.58,322.05,488.52,322.16z"/>
	<path d="M205.68,564.25c5.54-0.45,10.93,0.23,16.22,1.88c4.19,1.31,6.16,3.7,5.44,6.75c-0.72,3.06-3.54,4.13-7.98,2.93
		c-10.22-2.75-20.34-1.74-30.34,1c-4.4,1.21-7.85,3.58-8.29,8.85c-0.25,3.01-2.13,5.08-5.35,4.7c-3.16-0.37-4.5-2.82-4.41-5.77
		c0.2-6.77,3.62-11.67,9.42-14.93C188.25,565.26,196.99,564.81,205.68,564.25z"/>
	<path d="M513.92,295.11c0,0.93,0.16,3.06-0.03,5.15c-0.48,5.18-3.74,8.5-8.2,8.56c-4.5,0.07-7.92-3.11-8.46-8.27
		c-0.33-3.07-0.18-6.18-0.26-9.28c-0.07-2.67-0.21-5.3-0.92-7.93c-1.42-5.24,0.73-9.63,5.09-10.99c4.39-1.37,9.04,1.19,11.04,6.15
		c0.42,1.04,0.77,2.14,0.93,3.24C513.67,285.78,514.2,289.83,513.92,295.11z"/>
	<path d="M325.72,175.7c3.22-0.08,5.65,1.46,7.56,3.88c2.52,3.2,5.29,6.14,8.27,8.93c3.74,3.5,4.18,8.26,1.4,11.68
		c-2.83,3.47-7.58,4.09-11.74,1.26c-5.06-3.44-9.09-7.98-12.17-13.19C315.69,182.59,319.45,175.84,325.72,175.7z"/>
	<path d="M176.77,183.43c0.16-1.24,0.27-2.5,0.49-3.75c0.87-4.95,4.58-8.27,8.85-7.95c4.27,0.32,7.46,3.67,7.66,8.6
		c0.14,3.35,1.09,6.28,2.68,9.19c2.52,4.59,1.39,9.54-2.47,11.93c-4,2.48-8.6,1.39-11.69-3.14
		C179.24,193.85,177.09,188.97,176.77,183.43z"/>
	<path d="M186.57,611.81c-0.33-6.22,2.05-11.36,6.18-15.67c3.1-3.24,6.43-6.27,9.85-9.18c2.37-2.02,5.24-3.29,8.36-3.76
		c2.65-0.4,4.87,0.51,5.75,3.13c0.94,2.8-0.18,5.25-2.93,6.14c-5.07,1.63-8.46,5.34-12.15,8.77c-3.48,3.25-5.46,7.07-5.17,11.92
		c0.05,0.83-0.03,1.69-0.16,2.52c-0.46,2.96-1.85,5.11-5.18,4.94c-3.1-0.16-4.31-2.3-4.54-5.1
		C186.49,614.27,186.57,613,186.57,611.81z"/>
	<path d="M201.08,184.64c-0.12-3.71,0.72-7.27,1.89-10.73c1.6-4.74,5.9-7.27,10.11-6.15c4.43,1.18,7.09,5.71,6.07,10.57
		c-0.61,2.89-1.22,5.76-1.29,8.73c-0.14,5.77-3.23,9.38-8,9.49c-4.75,0.11-8.21-3.4-8.77-8.97
		C200.99,186.61,201.08,185.62,201.08,184.64z"/>
	<path d="M329.25,274.65c0.86-5,3.89-8.95,8.4-11.65c7.63-4.57,16.18-5.33,24.82-5.4c2.03-0.01,3.64,0.99,3.84,3.15
		c0.23,2.38-1.28,3.63-3.49,3.95c-4.86,0.69-9.81,0.7-14.61,1.97c-5.54,1.47-10.34,3.66-11.59,10.12c-0.4,2.06-2.07,3.01-4.17,2.61
		C330.12,278.96,329.44,277.14,329.25,274.65z"/>
	<path d="M482.96,387.62c-5.04-0.08-9.14-4.16-9.13-9.11c0.01-5.11,4.37-9.34,9.49-9.21c5,0.13,9.12,4.25,9.13,9.15
		C492.46,383.59,488.2,387.7,482.96,387.62z"/>
	<path d="M522.56,388.41c-0.06,5.06-4.16,9.14-9.17,9.14c-5.14-0.01-9.39-4.42-9.21-9.57c0.18-5.03,4.39-8.99,9.43-8.86
		C518.71,379.25,522.61,383.3,522.56,388.41z"/>
	<path d="M375.2,269.88c1.26-0.07,2.52-0.15,3.78-0.2c2.9-0.12,6.23-0.23,6.24,3.69c0,3.81-3.33,3.82-6.22,3.96
		c-3.07,0.15-6.16,0.29-9.21,0.71c-2.9,0.4-5.79,0.82-8.53,2.11c-2.17,1.02-4.6,1.15-5.64-1.64c-0.95-2.56,0.52-4.34,2.75-5.4
		c3.59-1.71,7.45-2.39,11.37-2.78c1.81-0.18,3.63-0.26,5.45-0.39C375.21,269.92,375.2,269.9,375.2,269.88z"/>
	<path d="M258.94,641.58c0.45-0.79,0.76-1.25,0.98-1.74c0.48-1.12,1.18-2.1,2.51-1.67c1.42,0.46,1.2,1.74,0.89,2.85
		c-0.85,3.05-0.38,6.16-0.54,9.24c-0.15,2.84,0.87,4.16,3.9,3.8c1.41-0.17,3.57-0.72,3.77,1.48c0.21,2.38-2.11,2.26-3.68,2.46
		c-6.59,0.82-7.75-0.24-7.73-6.77c0.01-1.68,0-3.36,0-5.43c-1.92,0.97-3.59,1.86-5.3,2.67c-1.33,0.63-2.88,1.15-3.6-0.64
		c-0.61-1.53,0.8-2.14,1.92-2.79c1.4-0.8,4.14-0.97,2.02-3.67c-0.92-1.16-2.29-1.89-3.72-1.58c-1.65,0.36-1.25,2.01-1.28,3.18
		c-0.09,3.66-0.03,7.32-0.08,10.98c-0.01,1.18-0.3,2.37-1.71,2.52c-1.76,0.18-2.08-1.24-2.15-2.51c-0.12-2.25,0-4.5-0.05-6.75
		c-0.02-0.93,0.18-2.17-1.2-2.31c-1.46-0.15-1.38,1.08-1.47,2.03c-0.24,2.38-0.44,4.76-0.68,7.14c-0.11,1.15-0.29,2.39-1.73,2.51
		c-1.44,0.12-2.07-0.97-1.96-2.18c0.22-2.39-1.24-2.84-3.09-3.57c-3.84-1.52-5.82-6.8-4.73-11.57c1.1-4.78,3.95-7.36,8.02-7.19
		c1.7,0.07,3.82,0.21,3.7,2.43c-0.11,2.03-2.04,1.25-3.38,1.22c-2.99-0.07-4.24,1.85-4.7,4.44c-0.51,2.85,0.25,5.32,2.68,7.08
		c0.59,0.43,1.34,0.63,1.72-0.29c0.37-0.88,0.98-1.9,0.05-2.71c-1-0.88-2.14-1.73-1.16-3.12c0.87-1.23,2.34-0.68,3.56-0.54
		c2.57,0.29,4.58,0.45,5.86-2.85c1.13-2.94,6.87-2.29,9.97,0.81C257.31,639.29,257.91,640.26,258.94,641.58z"/>
	<path d="M293.77,645.37c0.04-4.54,4.3-7.31,10.95-7.14c4.62,0.12,7.69,3.6,7.7,8.73c0.01,4.48-5.97,11.14-9.91,11.03
		C297.73,657.87,293.7,652.05,293.77,645.37z M297.46,644.96c-0.06,4.83,2.44,8.98,4.82,9.07c2.28,0.09,6.53-4.26,6.48-6.86
		c-0.07-2.93-1.01-5.44-4.63-5.09C301.37,642.34,297.99,641.85,297.46,644.96z"/>
	<path d="M326.88,647.64c-1.15,5.31-5.12,7.35-9.87,8.44c-1.25,0.29-2.73,0.47-3.14-1.17c-0.4-1.63,0.91-2.21,2.22-2.45
		c1.99-0.37,3.73-1.19,5.24-2.53c0.76-0.67,1.41-1.43,0.99-2.55c-0.38-0.99-1.31-0.85-2.13-0.95c-5.73-0.75-7.94-4.43-5.96-9.96
		c0.76-2.11,8.63-4.57,10.52-3.18c1.46,1.07,1.03,2.29-0.41,2.89c-1.27,0.53-2.71,0.84-4.09,0.9c-2.28,0.11-2.76,1.32-2.73,3.31
		c0.03,1.97,1.15,2.43,2.73,2.28c3.82-0.36,5.6,1.87,6.68,5.08C326.93,647.77,326.88,647.64,326.88,647.64z"/>
	<path d="M287.33,653.63c1.45,1.27,2.92,0.96,4.28,1.11c1.2,0.13,2.31,0.41,2.25,1.92c-0.05,1.25-1.03,1.56-2.07,1.66
		c-3.08,0.29-6.15,0.56-9.23,0.82c-1.06,0.09-1.99-0.22-2.4-1.3c-0.4-1.06,0.1-1.91,0.84-2.64c1.71-1.68,3.35-3.43,4.39-5.63
		c2.26-4.74,0.79-7.07-4.28-6.73c-1.07,0.07-2.06,0.09-2.46-1.03c-0.51-1.41,0.54-2.01,1.61-2.51c5.28-2.5,10.16,1.21,9.76,7.47
		C289.85,649.32,288.64,651.55,287.33,653.63z"/>
</g>
</svg>
